# xmcd
#
# Track frame offsets:
#	150
#	25253
#	38709
#	57128
#	73711
#	86027
#	104859
#	133085
#	142705
#	160710
#	180087
#	203547
#	210446
#	223414
#
# Disc length: 3385 seconds
#
# Revision: 0
# Processed by: cddbd v1.5.1PL2 Copyright (c) Steve Scherf et al.
# Submitted via: EasyCDDAExtractor 8.2.3.1
#
DISCID=c20d370e
DTITLE=Antony and the Johnsons - Live @ San Severo al Pendino Church, Naples
DYEAR=2002
DGENRE=Antony
TTITLE0=Poem Introduction..... Twilight
TTITLE1=Alienated Soul
TTITLE2=Poorest Ear
TTITLE3=So Young
TTITLE4=You Stand Above Me
TTITLE5=Cripple And The Starfish
TTITLE6=Mysteries Of Love
TTITLE7=What Can I Do
TTITLE8=Fistful Of Love
TTITLE9=Introductions
TTITLE10=Find The Rhythm
TTITLE11=I Fell In Love Intro
TTITLE12=I Fell In Love With A Dead Boy
TTITLE13=Encore, Forrest Of Love
EXTD=
EXTT0=
EXTT1=
EXTT2=
EXTT3=
EXTT4=
EXTT5=
EXTT6=
EXTT7=
EXTT8=
EXTT9=
EXTT10=
EXTT11=
EXTT12=
EXTT13=
PLAYORDER=
